<?xml version="1.0" encoding="UTF-8"?>
<svg id="Layer_2" data-name="Layer 2" xmlns="http://www.w3.org/2000/svg" xmlns:xlink="http://www.w3.org/1999/xlink" viewBox="0 0 230.67 278.48">
  <defs>
    <style>
      .cls-1 {
        fill: none;
      }

      .cls-2 {
        clip-path: url(#clippath-1);
      }

      .cls-3 {
        clip-path: url(#clippath);
      }
    </style>
    <clipPath id="clippath">
      <rect class="cls-1" width="230.67" height="278.48"/>
    </clipPath>
    <clipPath id="clippath-1">
      <rect class="cls-1" x="89.89" y="29.25" width="50.81" height="153.79"/>
    </clipPath>
  </defs>
  <g id="Layer_1-2" data-name="Layer 1">
    <g id="_139207ffd1" data-name="139207ffd1">
      <g class="cls-3">
        <path d="M34.04,196.77l80.89,80.95,80.89-80.95c44.93-44.97,44.93-117.58,0-162.55-44.94-44.97-117.48-44.97-162.41,0-43.66,44.97-43.66,117.58.64,162.55ZM56.51,56.71c32.74-32.77,85.38-32.77,117.47,0,32.74,32.77,32.74,85.45,0,117.57-32.74,32.77-85.38,32.77-117.47,0-32.1-32.13-32.74-84.81,0-117.57Z"/>
      </g>
      <g class="cls-2">
        <path d="M107.38,53.79l-17.43,97.46c-.22,1.55.2,3.13,1.18,4.36l20.18,25.49c2.04,2.57,5.94,2.57,7.98,0l20.18-25.49c.97-1.23,1.4-2.81,1.18-4.36l-17.43-97.48c-.03-.23,0-.47.06-.69l12.77-22.02c.36-.86-.27-1.81-1.2-1.81h-39.82c-.95,0-1.58.98-1.19,1.84l13.47,21.97c.07.22.09.47.07.72"/>
      </g>
    </g>
  </g>
</svg>