<?xml version="1.0" encoding="UTF-8"?>
<svg id="Layer_2" data-name="Layer 2" xmlns="http://www.w3.org/2000/svg" viewBox="0 0 117.3 132.08">
  <defs>
    <style>
      .cls-1 {
        fill: #fff;
      }
    </style>
  </defs>
  <g id="Layer_1-2" data-name="Layer 1">
    <g>
      <path class="cls-1" d="M100.13,31.96c-3.55-3.55-7.47-6.58-11.68-9.07,2.57,4.54,4.62,9.29,6.13,14.24,9.37,9.27,15.18,22.12,15.18,36.31,0,26.94-20.96,49.08-47.44,50.97l-4.46,5.21-4.58-5.36c-25.66-2.69-45.72-24.46-45.72-50.82,0-14.19,5.81-27.04,15.18-36.31,1.51-4.95,3.56-9.7,6.13-14.24-4.21,2.49-8.13,5.52-11.68,9.07C6.1,43.04,0,57.77,0,73.43s6.1,30.4,17.18,41.47c11.08,11.08,25.81,17.18,41.47,17.18s30.4-6.1,41.47-17.18c11.08-11.08,17.18-25.81,17.18-41.47s-6.1-30.4-17.18-41.47Z"/>
      <path class="cls-1" d="M66.63,22.96c-2.88-3.37-5.75-5.96-7.98-7.74-2.22,1.78-5.09,4.37-7.98,7.74,2.6-.41,5.26-.62,7.98-.62s5.38.21,7.98.62Z"/>
      <g>
        <path class="cls-1" d="M58.63,45.74c-5.37.03-9.94,4.67-9.86,10.03.08,5.46,4.48,9.85,9.88,9.83,5.54-.02,9.99-4.55,9.9-10.06-.09-5.45-4.52-9.82-9.92-9.8Z"/>
        <path class="cls-1" d="M91.61,47.75c-1.49-9.47-4.95-18.35-10.29-26.38C72.25,7.72,60.93,1.28,60.46,1.01l-1.81-1.01-1.81,1.01c-.48.27-11.79,6.71-20.86,20.36-5.34,8.03-8.8,16.91-10.29,26.38-1.85,11.75-.64,24.42,3.6,37.65h0c.13.39.32.77.59,1.11,1.25,1.6,3.56,1.88,5.16.63,17.74-13.9,36.6-6.21,44.22-2.03l-3.98,4.6c-11.38-7.57-24.46-7.07-37.19,1.55-.18.12-.32.22-.42.28-.92.56-1.54,1.5-1.71,2.57-.16,1.06.15,2.15.85,2.96l21.02,24.33,12.6-14.65c1.2-1.4,1.18-3.47-.05-4.84-.53-.59-5.34-5.73-11.86-5.06-2.02.21-3.49,2.01-3.28,4.03.21,2.02,2.01,3.48,4.03,3.28,1.06-.11,2.14.24,3.08.73l-4.53,5.27-12.65-14.65c10.12-5.69,19.65-5.02,28.36,2.02,1.54,1.25,3.79,1.04,5.09-.45l9.02-10.42c.67-.78.99-1.81.87-2.83-.12-1.02-.66-1.95-1.5-2.55-.3-.22-7.48-5.34-17.95-7.92-12.27-3.03-23.97-1.32-34.14,4.94-2.69-10.27-3.35-20.06-1.95-29.18,1.29-8.38,4.31-16.25,9-23.37,6.04-9.19,13.34-14.82,16.68-17.1,3.33,2.28,10.64,7.91,16.68,17.1,4.68,7.12,7.71,14.99,9,23.37,1.16,7.58.91,15.62-.76,24.02,3.76,1.89,6.11,3.54,6.55,3.86.06.04.11.09.17.13,2.33-10.24,2.78-20.09,1.33-29.36Z"/>
        <polygon class="cls-1" points="57.86 121.47 57.9 121.43 57.82 121.43 57.86 121.47"/>
      </g>
    </g>
  </g>
</svg>