<?xml version="1.0" encoding="UTF-8"?>
<svg id="Layer_2" data-name="Layer 2" xmlns="http://www.w3.org/2000/svg" viewBox="0 0 53.1 59.79">
  <defs>
    <style>
      .cls-1 {
        fill: #262525;
      }
    </style>
  </defs>
  <g id="Layer_1-2" data-name="Layer 1">
    <g>
      <path class="cls-1" d="M45.32,14.47c-1.61-1.61-3.38-2.98-5.29-4.11,1.16,2.05,2.09,4.21,2.77,6.44,4.24,4.19,6.87,10.01,6.87,16.43,0,12.2-9.49,22.22-21.47,23.07l-2.02,2.36-2.07-2.43c-11.61-1.22-20.7-11.07-20.7-23,0-6.42,2.63-12.24,6.87-16.43.68-2.24,1.61-4.39,2.77-6.44-1.9,1.13-3.68,2.5-5.29,4.11C2.76,19.48,0,26.15,0,33.24s2.76,13.76,7.78,18.77c5.01,5.01,11.68,7.78,18.77,7.78s13.76-2.76,18.77-7.78c5.01-5.01,7.78-11.68,7.78-18.77s-2.76-13.76-7.78-18.77Z"/>
      <path class="cls-1" d="M30.16,10.39c-1.31-1.53-2.6-2.7-3.61-3.5-1.01.81-2.31,1.98-3.61,3.5,1.18-.19,2.38-.28,3.61-.28s2.43.1,3.61.28Z"/>
      <g>
        <path class="cls-1" d="M26.54,20.7c-2.43.01-4.5,2.11-4.46,4.54.03,2.47,2.03,4.46,4.47,4.45,2.51,0,4.52-2.06,4.48-4.56-.04-2.47-2.04-4.45-4.49-4.44Z"/>
        <path class="cls-1" d="M41.46,21.61c-.67-4.29-2.24-8.31-4.66-11.94C32.7,3.49,27.58.58,27.37.46l-.82-.46-.82.46c-.22.12-5.34,3.04-9.44,9.21-2.42,3.64-3.98,7.65-4.66,11.94-.84,5.32-.29,11.05,1.63,17.04h0c.06.18.15.35.27.5.57.72,1.61.85,2.33.28,8.03-6.29,16.57-2.81,20.01-.92l-1.8,2.08c-5.15-3.43-11.07-3.2-16.83.7-.08.06-.15.1-.19.13-.42.26-.7.68-.77,1.16-.07.48.07.97.38,1.34l9.52,11.01,5.7-6.63c.54-.63.53-1.57-.02-2.19-.24-.27-2.42-2.59-5.37-2.29-.91.09-1.58.91-1.48,1.82.09.91.91,1.58,1.82,1.48.48-.05.97.11,1.39.33l-2.05,2.39-5.73-6.63c4.58-2.58,8.89-2.27,12.84.92.7.56,1.72.47,2.3-.21l4.08-4.72c.31-.35.45-.82.39-1.28-.05-.46-.3-.88-.68-1.16-.14-.1-3.38-2.42-8.12-3.59-5.55-1.37-10.85-.6-15.45,2.23-1.22-4.65-1.52-9.08-.88-13.21.58-3.79,1.95-7.35,4.07-10.58,2.73-4.16,6.04-6.71,7.55-7.74,1.51,1.03,4.82,3.58,7.55,7.74,2.12,3.22,3.49,6.78,4.07,10.58.53,3.43.41,7.07-.34,10.87,1.7.86,2.76,1.6,2.96,1.75.03.02.05.04.08.06,1.06-4.64,1.26-9.09.6-13.29Z"/>
        <polygon class="cls-1" points="26.19 54.98 26.21 54.96 26.17 54.96 26.19 54.98"/>
      </g>
    </g>
  </g>
</svg>