<?xml version="1.0" encoding="UTF-8"?>
<svg id="Layer_2" data-name="Layer 2" xmlns="http://www.w3.org/2000/svg" viewBox="0 0 148.38 148.38">
  <defs>
    <style>
      .cls-1 {
        fill: #0072f5;
      }

      .cls-2 {
        fill: #fff;
      }
    </style>
  </defs>
  <g id="Layer_1-2" data-name="Layer 1">
    <rect class="cls-1" width="148.38" height="148.38" rx="24" ry="24"/>
    <g>
      <path class="cls-2" d="M112.66,42.57c-3.29-3.29-6.93-6.11-10.83-8.42,2.38,4.21,4.28,8.62,5.68,13.21,8.69,8.6,14.08,20.52,14.08,33.68,0,25-19.45,45.53-44,47.28l-4.13,4.83-4.25-4.97c-23.8-2.5-42.42-22.69-42.42-47.14,0-13.16,5.39-25.08,14.08-33.68,1.4-4.59,3.3-9,5.68-13.21-3.9,2.31-7.54,5.13-10.84,8.42-10.28,10.28-15.94,23.94-15.94,38.47s5.66,28.2,15.94,38.47c10.28,10.28,23.94,15.94,38.47,15.94s28.2-5.66,38.47-15.94c10.28-10.28,15.94-23.94,15.94-38.47s-5.66-28.2-15.94-38.47Z"/>
      <path class="cls-2" d="M81.59,34.22c-2.68-3.13-5.34-5.53-7.4-7.18-2.06,1.65-4.73,4.05-7.4,7.18,2.41-.38,4.88-.58,7.4-.58s4.99.2,7.4.58Z"/>
      <g>
        <path class="cls-2" d="M74.17,55.36c-4.98.02-9.22,4.33-9.15,9.31.07,5.07,4.16,9.14,9.17,9.12,5.14-.02,9.27-4.22,9.18-9.34-.08-5.06-4.19-9.11-9.2-9.09Z"/>
        <path class="cls-2" d="M104.76,57.22c-1.38-8.79-4.59-17.02-9.54-24.47-8.42-12.66-18.91-18.64-19.35-18.88l-1.67-.94-1.67.94c-.44.25-10.94,6.22-19.35,18.88-4.95,7.45-8.16,15.68-9.54,24.47-1.71,10.9-.59,22.66,3.34,34.93h0c.12.36.3.71.55,1.03,1.16,1.48,3.3,1.74,4.78.58,16.46-12.9,33.96-5.76,41.02-1.88l-3.69,4.26c-10.56-7.03-22.69-6.56-34.5,1.44-.17.11-.3.2-.39.26-.85.52-1.43,1.39-1.58,2.38-.15.99.14,1.99.79,2.75l19.5,22.57,11.69-13.59c1.11-1.3,1.1-3.22-.04-4.49-.49-.55-4.95-5.32-11-4.7-1.87.19-3.23,1.87-3.04,3.74.19,1.87,1.86,3.23,3.74,3.04.98-.1,1.98.22,2.85.68l-4.21,4.89-11.74-13.59c9.39-5.28,18.23-4.66,26.31,1.88,1.43,1.16,3.52.97,4.72-.42l8.37-9.67c.63-.72.92-1.68.81-2.62-.11-.95-.62-1.81-1.39-2.37-.28-.2-6.94-4.95-16.65-7.35-11.38-2.81-22.23-1.22-31.67,4.58-2.5-9.52-3.11-18.61-1.81-27.07,1.19-7.78,4-15.07,8.35-21.68,5.6-8.52,12.38-13.75,15.47-15.86,3.09,2.11,9.87,7.34,15.47,15.86,4.34,6.61,7.15,13.9,8.35,21.68,1.08,7.03.84,14.49-.71,22.28,3.49,1.76,5.66,3.28,6.07,3.58.05.04.1.08.16.12,2.17-9.5,2.58-18.63,1.23-27.24Z"/>
        <polygon class="cls-2" points="73.46 125.62 73.49 125.58 73.42 125.58 73.46 125.62"/>
      </g>
    </g>
  </g>
</svg>